<svg xmlns="http://www.w3.org/2000/svg" viewBox="0 0 1200 750" width="1200" height="750" role="img" aria-label="Placeholder blog article illustration: connected content channels">
  <defs>
    <linearGradient id="b3" x1="0" y1="0" x2="1" y2="1">
      <stop offset="0" stop-color="#241a4d"/>
      <stop offset="1" stop-color="#5b2a55"/>
    </linearGradient>
  </defs>
  <rect width="1200" height="750" fill="url(#b3)"/>
  <circle cx="160" cy="120" r="200" fill="#633ef2" opacity="0.3"/>
  <circle cx="1060" cy="640" r="220" fill="#ff7a66" opacity="0.22"/>

  <!-- hub + channel cards -->
  <g stroke="#8b6cff" stroke-width="5" stroke-opacity="0.7" stroke-dasharray="3 12" stroke-linecap="round">
    <path d="M600 380 L280 200 M600 380 L920 200 M600 380 L300 560 M600 380 L900 560" fill="none"/>
  </g>
  <circle cx="600" cy="380" r="70" fill="#ff7a66"/>
  <path d="M572 380 l20 20 l38 -42" fill="none" stroke="#fff" stroke-width="10" stroke-linecap="round" stroke-linejoin="round"/>

  <g>
    <rect x="180" y="130" width="200" height="140" rx="22" fill="#201946" stroke="#8b6cff" stroke-opacity="0.5"/>
    <rect x="214" y="178" width="130" height="14" rx="7" fill="#cdbffb"/>
    <rect x="214" y="210" width="90" height="12" rx="6" fill="#cdbffb" opacity="0.5"/>

    <rect x="820" y="130" width="200" height="140" rx="22" fill="#201946" stroke="#8b6cff" stroke-opacity="0.5"/>
    <path d="M900 175 l44 26 -44 26 z" fill="#ff9b85"/>

    <rect x="200" y="490" width="200" height="140" rx="22" fill="#201946" stroke="#8b6cff" stroke-opacity="0.5"/>
    <path d="M262 552 h76 M262 576 h52" stroke="#cdbffb" stroke-width="10" stroke-linecap="round"/>

    <rect x="800" y="490" width="200" height="140" rx="22" fill="#201946" stroke="#8b6cff" stroke-opacity="0.5"/>
    <rect x="860" y="540" width="34" height="52" rx="6" fill="#8b6cff"/>
    <rect x="906" y="516" width="34" height="76" rx="6" fill="#b39cff"/>
    <rect x="952" y="500" width="34" height="92" rx="6" fill="#ff7a66"/>
  </g>

  <rect x="390" y="640" width="420" height="52" rx="26" fill="#171326" opacity="0.8"/>
  <text x="600" y="674" text-anchor="middle" font-family="'Space Grotesk', Arial, sans-serif"
        font-size="22" font-weight="600" letter-spacing="3" fill="#f7f4f0">ARTICLE PLACEHOLDER 03</text>
</svg>
